<?xml version="1.0" encoding="UTF-8" standalone="no"?>
<svg    xmlns:dc="http://purl.org/dc/elements/1.1/"   xmlns:cc="http://creativecommons.org/ns#"   xmlns:rdf="http://www.w3.org/1999/02/22-rdf-syntax-ns#"   xmlns:svg="http://www.w3.org/2000/svg"   xmlns="http://www.w3.org/2000/svg"    xmlns:sodipodi="http://sodipodi.sourceforge.net/DTD/sodipodi-0.dtd"   xmlns:inkscape="http://www.inkscape.org/namespaces/inkscape" width="500" height="500">
<g fill="none" stroke="black" stroke-width="1">
<path d="m 0.000000,0.000000 0.000000,0.000000 10.000000,0.000000 0.000000,0.000000 10.000000,0.000000 10.000000,10.000000 0.000000,0.000000 10.000000,0.000000 10.000000,10.000000 0.000000,10.000000 z"/>
<path d="m 0.000000,10.000000 0.000000,10.000000 10.000000,10.000000 0.000000,10.000000 10.000000,10.000000 10.000000,20.000000 0.000000,10.000000 10.000000,10.000000 10.000000,20.000000 0.000000,24.000000 z"/>
<path d="m 0.000000,24.000000 0.000000,24.000000 10.000000,28.000000 0.000000,24.000000 10.000000,28.000000 10.000000,33.000000 0.000000,24.000000 10.000000,28.000000 10.000000,33.000000 0.000000,33.000000 z"/>
<path d="m 0.000000,33.000000 0.000000,33.000000 14.000000,33.000000 0.000000,33.000000 14.000000,33.000000 7.000000,40.000000 z"/>
<path d="m 0.000000,40.000000 0.000000,40.000000 14.000000,40.000000 0.000000,40.000000 14.000000,40.000000 7.000000,52.000000 z"/>
<path d="m 0.000000,52.000000 0.000000,52.000000 10.000000,52.000000 0.000000,52.000000 10.000000,52.000000 10.000000,62.000000 0.000000,52.000000 10.000000,52.000000 10.000000,62.000000 0.000000,62.000000 z"/>
<path d="m 0.000000,62.000000 0.000000,62.000000 14.000000,62.000000 0.000000,62.000000 14.000000,62.000000 14.000000,76.000000 0.000000,62.000000 14.000000,62.000000 14.000000,76.000000 0.000000,76.000000 z"/>
<path d="m 0.000000,76.000000 0.000000,76.000000 14.000000,76.000000 0.000000,76.000000 14.000000,76.000000 14.000000,85.000000 0.000000,76.000000 14.000000,76.000000 14.000000,85.000000 0.000000,85.000000 z"/>
<path d="m 0.000000,85.000000 0.000000,85.000000 14.000000,85.000000 0.000000,85.000000 14.000000,85.000000 14.000000,99.000000 z"/>
<path d="m 0.000000,99.000000 0.000000,99.000000 0.000000,90.000000 0.000000,99.000000 0.000000,90.000000 14.000000,99.000000 z"/>
<path d="m 10.000000,0.000000 10.000000,0.000000 15.000000,0.000000 10.000000,0.000000 15.000000,0.000000 15.000000,9.000000 10.000000,0.000000 15.000000,0.000000 15.000000,9.000000 10.000000,9.000000 z"/>
<path d="m 7.000000,26.000000 7.000000,26.000000 11.000000,18.000000 7.000000,26.000000 11.000000,18.000000 15.000000,26.000000 z"/>
</g>
</svg>