<?xml version="1.0" encoding="UTF-8" standalone="no"?>
<svg    xmlns:dc="http://purl.org/dc/elements/1.1/"   xmlns:cc="http://creativecommons.org/ns#"   xmlns:rdf="http://www.w3.org/1999/02/22-rdf-syntax-ns#"   xmlns:svg="http://www.w3.org/2000/svg"   xmlns="http://www.w3.org/2000/svg"    xmlns:sodipodi="http://sodipodi.sourceforge.net/DTD/sodipodi-0.dtd"   xmlns:inkscape="http://www.inkscape.org/namespaces/inkscape" width="500" height="500">
<g fill="none" stroke="black" stroke-width="1">
<path d="m 0.000000,0.000000 0.000000,0.000000 10.000000,2.000000 0.000000,0.000000 10.000000,2.000000 8.000000,5.000000 0.000000,0.000000 10.000000,2.000000 8.000000,5.000000 4.000000,4.000000 z"/>
<path d="m 0.000000,0.000000 0.000000,0.000000 7.000000,0.000000 0.000000,0.000000 7.000000,0.000000 5.000000,7.000000 z"/>
<path d="m 0.000000,1.000000 0.000000,1.000000 3.000000,0.000000 0.000000,1.000000 3.000000,0.000000 7.000000,2.000000 0.000000,1.000000 3.000000,0.000000 7.000000,2.000000 4.000000,5.000000 0.000000,1.000000 3.000000,0.000000 7.000000,2.000000 4.000000,5.000000 1.000000,3.000000 z"/>
<path d="m 2.000000,3.000000 2.000000,3.000000 6.000000,0.000000 2.000000,3.000000 6.000000,0.000000 7.000000,7.000000 2.000000,3.000000 6.000000,0.000000 7.000000,7.000000 0.000000,10.000000 z"/>
<path d="m 0.000000,0.000000 0.000000,0.000000 10.000000,1.000000 0.000000,0.000000 10.000000,1.000000 13.000000,3.000000 0.000000,0.000000 10.000000,1.000000 13.000000,3.000000 12.000000,5.000000 0.000000,0.000000 10.000000,1.000000 13.000000,3.000000 12.000000,5.000000 5.000000,7.000000 0.000000,0.000000 10.000000,1.000000 13.000000,3.000000 12.000000,5.000000 5.000000,7.000000 1.000000,5.000000 z"/>
<path d="m 0.000000,2.000000 0.000000,2.000000 5.000000,0.000000 0.000000,2.000000 5.000000,0.000000 4.000000,4.000000 0.000000,2.000000 5.000000,0.000000 4.000000,4.000000 0.000000,3.000000 z"/>
<path d="m 4.000000,0.000000 4.000000,0.000000 6.000000,7.000000 4.000000,0.000000 6.000000,7.000000 0.000000,4.000000 z"/>
<path d="m 2.000000,0.000000 2.000000,0.000000 4.000000,7.000000 2.000000,0.000000 4.000000,7.000000 2.000000,9.000000 2.000000,0.000000 4.000000,7.000000 2.000000,9.000000 1.000000,6.000000 2.000000,0.000000 4.000000,7.000000 2.000000,9.000000 1.000000,6.000000 0.000000,4.000000 z"/>
<path d="m 0.000000,0.000000 0.000000,0.000000 6.000000,0.000000 0.000000,0.000000 6.000000,0.000000 8.000000,2.000000 0.000000,0.000000 6.000000,0.000000 8.000000,2.000000 3.000000,7.000000 z"/>
<path d="m 3.000000,0.000000 3.000000,0.000000 11.000000,0.000000 3.000000,0.000000 11.000000,0.000000 11.000000,3.000000 3.000000,0.000000 11.000000,0.000000 11.000000,3.000000 3.000000,7.000000 3.000000,0.000000 11.000000,0.000000 11.000000,3.000000 3.000000,7.000000 0.000000,5.000000 z"/>
<path d="m 1.000000,0.000000 1.000000,0.000000 8.000000,0.000000 1.000000,0.000000 8.000000,0.000000 4.000000,3.000000 1.000000,0.000000 8.000000,0.000000 4.000000,3.000000 7.000000,6.000000 1.000000,0.000000 8.000000,0.000000 4.000000,3.000000 7.000000,6.000000 0.000000,5.000000 z"/>
<path d="m 2.000000,0.000000 2.000000,0.000000 6.000000,2.000000 2.000000,0.000000 6.000000,2.000000 9.000000,1.000000 2.000000,0.000000 6.000000,2.000000 9.000000,1.000000 7.000000,3.000000 2.000000,0.000000 6.000000,2.000000 9.000000,1.000000 7.000000,3.000000 3.000000,5.000000 2.000000,0.000000 6.000000,2.000000 9.000000,1.000000 7.000000,3.000000 3.000000,5.000000 5.000000,7.000000 2.000000,0.000000 6.000000,2.000000 9.000000,1.000000 7.000000,3.000000 3.000000,5.000000 5.000000,7.000000 0.000000,8.000000 z"/>
<path d="m 0.000000,6.000000 0.000000,6.000000 3.000000,0.000000 0.000000,6.000000 3.000000,0.000000 9.000000,0.000000 0.000000,6.000000 3.000000,0.000000 9.000000,0.000000 4.000000,2.000000 z"/>
<path d="m 0.000000,0.000000 0.000000,0.000000 10.000000,0.000000 0.000000,0.000000 10.000000,0.000000 9.000000,4.000000 0.000000,0.000000 10.000000,0.000000 9.000000,4.000000 4.000000,2.000000 0.000000,0.000000 10.000000,0.000000 9.000000,4.000000 4.000000,2.000000 2.000000,3.000000 z"/>
<path d="m 0.000000,3.000000 0.000000,3.000000 5.000000,0.000000 0.000000,3.000000 5.000000,0.000000 7.000000,2.000000 0.000000,3.000000 5.000000,0.000000 7.000000,2.000000 8.000000,4.000000 0.000000,3.000000 5.000000,0.000000 7.000000,2.000000 8.000000,4.000000 2.000000,5.000000 z"/>
</g>
</svg>