<?xml version="1.0" encoding="UTF-8" standalone="no"?>
<svg    xmlns:dc="http://purl.org/dc/elements/1.1/"   xmlns:cc="http://creativecommons.org/ns#"   xmlns:rdf="http://www.w3.org/1999/02/22-rdf-syntax-ns#"   xmlns:svg="http://www.w3.org/2000/svg"   xmlns="http://www.w3.org/2000/svg"    xmlns:sodipodi="http://sodipodi.sourceforge.net/DTD/sodipodi-0.dtd"   xmlns:inkscape="http://www.inkscape.org/namespaces/inkscape" width="500" height="40">
<g>
<path style="fill:none;fill-rule:evenodd;stroke:#000000;stroke-width:1;stroke-linecap:butt;stroke-linejoin:miter;stroke-miterlimit:4;stroke-dasharray:none;stroke-opacity:1" d="M 0.000000,0.000000 L10.000000,2.000000 L8.000000,5.000000 L4.000000,4.000000 Z"/>
<path style="fill:none;fill-rule:evenodd;stroke:#000000;stroke-width:1;stroke-linecap:butt;stroke-linejoin:miter;stroke-miterlimit:4;stroke-dasharray:none;stroke-opacity:1" d="M 0.000000,0.000000 L7.000000,0.000000 L5.000000,7.000000 Z"/>
<path style="fill:none;fill-rule:evenodd;stroke:#000000;stroke-width:1;stroke-linecap:butt;stroke-linejoin:miter;stroke-miterlimit:4;stroke-dasharray:none;stroke-opacity:1" d="M 0.000000,1.000000 L3.000000,0.000000 L7.000000,2.000000 L4.000000,5.000000 L1.000000,3.000000 Z"/>
<path style="fill:none;fill-rule:evenodd;stroke:#000000;stroke-width:1;stroke-linecap:butt;stroke-linejoin:miter;stroke-miterlimit:4;stroke-dasharray:none;stroke-opacity:1" d="M 2.000000,3.000000 L6.000000,0.000000 L7.000000,7.000000 L0.000000,10.000000 Z"/>
<path style="fill:none;fill-rule:evenodd;stroke:#000000;stroke-width:1;stroke-linecap:butt;stroke-linejoin:miter;stroke-miterlimit:4;stroke-dasharray:none;stroke-opacity:1" d="M 0.000000,0.000000 L10.000000,1.000000 L13.000000,3.000000 L12.000000,5.000000 L5.000000,7.000000 L1.000000,5.000000 Z"/>
<path style="fill:none;fill-rule:evenodd;stroke:#000000;stroke-width:1;stroke-linecap:butt;stroke-linejoin:miter;stroke-miterlimit:4;stroke-dasharray:none;stroke-opacity:1" d="M 0.000000,2.000000 L5.000000,0.000000 L4.000000,4.000000 L0.000000,3.000000 Z"/>
<path style="fill:none;fill-rule:evenodd;stroke:#000000;stroke-width:1;stroke-linecap:butt;stroke-linejoin:miter;stroke-miterlimit:4;stroke-dasharray:none;stroke-opacity:1" d="M 4.000000,0.000000 L6.000000,7.000000 L0.000000,4.000000 Z"/>
<path style="fill:none;fill-rule:evenodd;stroke:#000000;stroke-width:1;stroke-linecap:butt;stroke-linejoin:miter;stroke-miterlimit:4;stroke-dasharray:none;stroke-opacity:1" d="M 2.000000,0.000000 L4.000000,7.000000 L2.000000,9.000000 L1.000000,6.000000 L0.000000,4.000000 Z"/>
<path style="fill:none;fill-rule:evenodd;stroke:#000000;stroke-width:1;stroke-linecap:butt;stroke-linejoin:miter;stroke-miterlimit:4;stroke-dasharray:none;stroke-opacity:1" d="M 0.000000,0.000000 L6.000000,0.000000 L8.000000,2.000000 L3.000000,7.000000 Z"/>
<path style="fill:none;fill-rule:evenodd;stroke:#000000;stroke-width:1;stroke-linecap:butt;stroke-linejoin:miter;stroke-miterlimit:4;stroke-dasharray:none;stroke-opacity:1" d="M 3.000000,0.000000 L11.000000,0.000000 L11.000000,3.000000 L3.000000,7.000000 L0.000000,5.000000 Z"/>
<path style="fill:none;fill-rule:evenodd;stroke:#000000;stroke-width:1;stroke-linecap:butt;stroke-linejoin:miter;stroke-miterlimit:4;stroke-dasharray:none;stroke-opacity:1" d="M 1.000000,0.000000 L8.000000,0.000000 L4.000000,3.000000 L7.000000,6.000000 L0.000000,5.000000 Z"/>
<path style="fill:none;fill-rule:evenodd;stroke:#000000;stroke-width:1;stroke-linecap:butt;stroke-linejoin:miter;stroke-miterlimit:4;stroke-dasharray:none;stroke-opacity:1" d="M 2.000000,0.000000 L6.000000,2.000000 L9.000000,1.000000 L7.000000,3.000000 L3.000000,5.000000 L5.000000,7.000000 L0.000000,8.000000 Z"/>
<path style="fill:none;fill-rule:evenodd;stroke:#000000;stroke-width:1;stroke-linecap:butt;stroke-linejoin:miter;stroke-miterlimit:4;stroke-dasharray:none;stroke-opacity:1" d="M 0.000000,6.000000 L3.000000,0.000000 L9.000000,0.000000 L4.000000,2.000000 Z"/>
<path style="fill:none;fill-rule:evenodd;stroke:#000000;stroke-width:1;stroke-linecap:butt;stroke-linejoin:miter;stroke-miterlimit:4;stroke-dasharray:none;stroke-opacity:1" d="M 0.000000,0.000000 L10.000000,0.000000 L9.000000,4.000000 L4.000000,2.000000 L2.000000,3.000000 Z"/>
<path style="fill:none;fill-rule:evenodd;stroke:#000000;stroke-width:1;stroke-linecap:butt;stroke-linejoin:miter;stroke-miterlimit:4;stroke-dasharray:none;stroke-opacity:1" d="M 0.000000,3.000000 L5.000000,0.000000 L7.000000,2.000000 L8.000000,4.000000 L2.000000,5.000000 Z"/>
<path style="fill:none;fill-rule:evenodd;stroke:#000000;stroke-width:1;stroke-linecap:butt;stroke-linejoin:miter;stroke-miterlimit:4;stroke-dasharray:none;stroke-opacity:1" d="M 0.000000,4.000000 L3.000000,0.000000 L7.000000,2.000000 L8.000000,7.000000 L8.000000,11.000000 L3.000000,8.000000 Z"/>
<path style="fill:none;fill-rule:evenodd;stroke:#000000;stroke-width:1;stroke-linecap:butt;stroke-linejoin:miter;stroke-miterlimit:4;stroke-dasharray:none;stroke-opacity:1" d="M 0.000000,4.000000 L4.000000,4.000000 L7.000000,0.000000 L9.000000,6.000000 L5.000000,6.000000 L0.000000,7.000000 Z"/>
<path style="fill:none;fill-rule:evenodd;stroke:#000000;stroke-width:1;stroke-linecap:butt;stroke-linejoin:miter;stroke-miterlimit:4;stroke-dasharray:none;stroke-opacity:1" d="M 0.000000,0.000000 L6.000000,0.000000 L9.000000,1.000000 L1.000000,5.000000 Z"/>
<path style="fill:none;fill-rule:evenodd;stroke:#000000;stroke-width:1;stroke-linecap:butt;stroke-linejoin:miter;stroke-miterlimit:4;stroke-dasharray:none;stroke-opacity:1" d="M 0.000000,1.000000 L3.000000,0.000000 L7.000000,3.000000 L11.000000,3.000000 L12.000000,8.000000 L1.000000,5.000000 Z"/>
<path style="fill:none;fill-rule:evenodd;stroke:#000000;stroke-width:1;stroke-linecap:butt;stroke-linejoin:miter;stroke-miterlimit:4;stroke-dasharray:none;stroke-opacity:1" d="M 0.000000,5.000000 L4.000000,0.000000 L9.000000,0.000000 L13.000000,5.000000 L6.000000,4.000000 L6.000000,8.000000 L2.000000,8.000000 Z"/>
<path style="fill:none;fill-rule:evenodd;stroke:#000000;stroke-width:1;stroke-linecap:butt;stroke-linejoin:miter;stroke-miterlimit:4;stroke-dasharray:none;stroke-opacity:1" d="M 0.000000,3.000000 L4.000000,0.000000 L7.000000,0.000000 L8.000000,5.000000 Z"/>
<path style="fill:none;fill-rule:evenodd;stroke:#000000;stroke-width:1;stroke-linecap:butt;stroke-linejoin:miter;stroke-miterlimit:4;stroke-dasharray:none;stroke-opacity:1" d="M 0.000000,4.000000 L2.000000,0.000000 L9.000000,1.000000 L12.000000,5.000000 L2.000000,8.000000 Z"/>
<path style="fill:none;fill-rule:evenodd;stroke:#000000;stroke-width:1;stroke-linecap:butt;stroke-linejoin:miter;stroke-miterlimit:4;stroke-dasharray:none;stroke-opacity:1" d="M 0.000000,8.000000 L3.000000,4.000000 L11.000000,0.000000 L10.000000,7.000000 L2.000000,10.000000 Z"/>
<path style="fill:none;fill-rule:evenodd;stroke:#000000;stroke-width:1;stroke-linecap:butt;stroke-linejoin:miter;stroke-miterlimit:4;stroke-dasharray:none;stroke-opacity:1" d="M 0.000000,4.000000 L2.000000,1.000000 L4.000000,0.000000 L4.000000,6.000000 L0.000000,6.000000 Z"/>
<path style="fill:none;fill-rule:evenodd;stroke:#000000;stroke-width:1;stroke-linecap:butt;stroke-linejoin:miter;stroke-miterlimit:4;stroke-dasharray:none;stroke-opacity:1" d="M 0.000000,7.000000 L2.000000,0.000000 L3.000000,8.000000 Z"/>
<path style="fill:none;fill-rule:evenodd;stroke:#000000;stroke-width:1;stroke-linecap:butt;stroke-linejoin:miter;stroke-miterlimit:4;stroke-dasharray:none;stroke-opacity:1" d="M 0.000000,0.000000 L4.000000,4.000000 L5.000000,7.000000 L2.000000,5.000000 Z"/>
<path style="fill:none;fill-rule:evenodd;stroke:#000000;stroke-width:1;stroke-linecap:butt;stroke-linejoin:miter;stroke-miterlimit:4;stroke-dasharray:none;stroke-opacity:1" d="M 0.000000,0.000000 L5.000000,0.000000 L4.000000,5.000000 L2.000000,7.000000 Z"/>
<path style="fill:none;fill-rule:evenodd;stroke:#000000;stroke-width:1;stroke-linecap:butt;stroke-linejoin:miter;stroke-miterlimit:4;stroke-dasharray:none;stroke-opacity:1" d="M 0.000000,2.000000 L5.000000,5.000000 L9.000000,0.000000 L9.000000,3.000000 L5.000000,8.000000 Z"/>
<path style="fill:none;fill-rule:evenodd;stroke:#000000;stroke-width:1;stroke-linecap:butt;stroke-linejoin:miter;stroke-miterlimit:4;stroke-dasharray:none;stroke-opacity:1" d="M 0.000000,2.000000 L3.000000,0.000000 L7.000000,0.000000 L9.000000,3.000000 L7.000000,6.000000 L5.000000,2.000000 L3.000000,2.000000 L3.000000,3.000000 Z"/>
<path style="fill:none;fill-rule:evenodd;stroke:#000000;stroke-width:1;stroke-linecap:butt;stroke-linejoin:miter;stroke-miterlimit:4;stroke-dasharray:none;stroke-opacity:1" d="M 0.000000,6.000000 L2.000000,3.000000 L2.000000,0.000000 L4.000000,1.000000 L6.000000,0.000000 L9.000000,5.000000 L4.000000,8.000000 Z"/>
</g>
</svg><path style="fill:none;fill-rule:evenodd;stroke:#000000;stroke-width:1;stroke-linecap:butt;stroke-linejoin:miter;stroke-miterlimit:4;stroke-dasharray:none;stroke-opacity:1" d="M 0.000000,0.000000 L10.000000,2.000000 L8.000000,5.000000 L4.000000,4.000000 Z"/>
<path style="fill:none;fill-rule:evenodd;stroke:#000000;stroke-width:1;stroke-linecap:butt;stroke-linejoin:miter;stroke-miterlimit:4;stroke-dasharray:none;stroke-opacity:1" d="M 0.000000,0.000000 L7.000000,0.000000 L5.000000,7.000000 Z"/>
<path style="fill:none;fill-rule:evenodd;stroke:#000000;stroke-width:1;stroke-linecap:butt;stroke-linejoin:miter;stroke-miterlimit:4;stroke-dasharray:none;stroke-opacity:1" d="M 0.000000,1.000000 L3.000000,0.000000 L7.000000,2.000000 L4.000000,5.000000 L1.000000,3.000000 Z"/>
<path style="fill:none;fill-rule:evenodd;stroke:#000000;stroke-width:1;stroke-linecap:butt;stroke-linejoin:miter;stroke-miterlimit:4;stroke-dasharray:none;stroke-opacity:1" d="M 2.000000,3.000000 L6.000000,0.000000 L7.000000,7.000000 L0.000000,10.000000 Z"/>
<path style="fill:none;fill-rule:evenodd;stroke:#000000;stroke-width:1;stroke-linecap:butt;stroke-linejoin:miter;stroke-miterlimit:4;stroke-dasharray:none;stroke-opacity:1" d="M 0.000000,0.000000 L10.000000,1.000000 L13.000000,3.000000 L12.000000,5.000000 L5.000000,7.000000 L1.000000,5.000000 Z"/>
<path style="fill:none;fill-rule:evenodd;stroke:#000000;stroke-width:1;stroke-linecap:butt;stroke-linejoin:miter;stroke-miterlimit:4;stroke-dasharray:none;stroke-opacity:1" d="M 0.000000,2.000000 L5.000000,0.000000 L4.000000,4.000000 L0.000000,3.000000 Z"/>
<path style="fill:none;fill-rule:evenodd;stroke:#000000;stroke-width:1;stroke-linecap:butt;stroke-linejoin:miter;stroke-miterlimit:4;stroke-dasharray:none;stroke-opacity:1" d="M 4.000000,0.000000 L6.000000,7.000000 L0.000000,4.000000 Z"/>
<path style="fill:none;fill-rule:evenodd;stroke:#000000;stroke-width:1;stroke-linecap:butt;stroke-linejoin:miter;stroke-miterlimit:4;stroke-dasharray:none;stroke-opacity:1" d="M 2.000000,0.000000 L4.000000,7.000000 L2.000000,9.000000 L1.000000,6.000000 L0.000000,4.000000 Z"/>
<path style="fill:none;fill-rule:evenodd;stroke:#000000;stroke-width:1;stroke-linecap:butt;stroke-linejoin:miter;stroke-miterlimit:4;stroke-dasharray:none;stroke-opacity:1" d="M 0.000000,0.000000 L6.000000,0.000000 L8.000000,2.000000 L3.000000,7.000000 Z"/>
<path style="fill:none;fill-rule:evenodd;stroke:#000000;stroke-width:1;stroke-linecap:butt;stroke-linejoin:miter;stroke-miterlimit:4;stroke-dasharray:none;stroke-opacity:1" d="M 3.000000,0.000000 L11.000000,0.000000 L11.000000,3.000000 L3.000000,7.000000 L0.000000,5.000000 Z"/>
<path style="fill:none;fill-rule:evenodd;stroke:#000000;stroke-width:1;stroke-linecap:butt;stroke-linejoin:miter;stroke-miterlimit:4;stroke-dasharray:none;stroke-opacity:1" d="M 1.000000,0.000000 L8.000000,0.000000 L4.000000,3.000000 L7.000000,6.000000 L0.000000,5.000000 Z"/>
<path style="fill:none;fill-rule:evenodd;stroke:#000000;stroke-width:1;stroke-linecap:butt;stroke-linejoin:miter;stroke-miterlimit:4;stroke-dasharray:none;stroke-opacity:1" d="M 2.000000,0.000000 L6.000000,2.000000 L9.000000,1.000000 L7.000000,3.000000 L3.000000,5.000000 L5.000000,7.000000 L0.000000,8.000000 Z"/>
<path style="fill:none;fill-rule:evenodd;stroke:#000000;stroke-width:1;stroke-linecap:butt;stroke-linejoin:miter;stroke-miterlimit:4;stroke-dasharray:none;stroke-opacity:1" d="M 0.000000,6.000000 L3.000000,0.000000 L9.000000,0.000000 L4.000000,2.000000 Z"/>
<path style="fill:none;fill-rule:evenodd;stroke:#000000;stroke-width:1;stroke-linecap:butt;stroke-linejoin:miter;stroke-miterlimit:4;stroke-dasharray:none;stroke-opacity:1" d="M 0.000000,0.000000 L10.000000,0.000000 L9.000000,4.000000 L4.000000,2.000000 L2.000000,3.000000 Z"/>
<path style="fill:none;fill-rule:evenodd;stroke:#000000;stroke-width:1;stroke-linecap:butt;stroke-linejoin:miter;stroke-miterlimit:4;stroke-dasharray:none;stroke-opacity:1" d="M 0.000000,3.000000 L5.000000,0.000000 L7.000000,2.000000 L8.000000,4.000000 L2.000000,5.000000 Z"/>
<path style="fill:none;fill-rule:evenodd;stroke:#000000;stroke-width:1;stroke-linecap:butt;stroke-linejoin:miter;stroke-miterlimit:4;stroke-dasharray:none;stroke-opacity:1" d="M 0.000000,4.000000 L3.000000,0.000000 L7.000000,2.000000 L8.000000,7.000000 L8.000000,11.000000 L3.000000,8.000000 Z"/>
<path style="fill:none;fill-rule:evenodd;stroke:#000000;stroke-width:1;stroke-linecap:butt;stroke-linejoin:miter;stroke-miterlimit:4;stroke-dasharray:none;stroke-opacity:1" d="M 0.000000,4.000000 L4.000000,4.000000 L7.000000,0.000000 L9.000000,6.000000 L5.000000,6.000000 L0.000000,7.000000 Z"/>
<path style="fill:none;fill-rule:evenodd;stroke:#000000;stroke-width:1;stroke-linecap:butt;stroke-linejoin:miter;stroke-miterlimit:4;stroke-dasharray:none;stroke-opacity:1" d="M 0.000000,0.000000 L6.000000,0.000000 L9.000000,1.000000 L1.000000,5.000000 Z"/>
<path style="fill:none;fill-rule:evenodd;stroke:#000000;stroke-width:1;stroke-linecap:butt;stroke-linejoin:miter;stroke-miterlimit:4;stroke-dasharray:none;stroke-opacity:1" d="M 0.000000,1.000000 L3.000000,0.000000 L7.000000,3.000000 L11.000000,3.000000 L12.000000,8.000000 L1.000000,5.000000 Z"/>
<path style="fill:none;fill-rule:evenodd;stroke:#000000;stroke-width:1;stroke-linecap:butt;stroke-linejoin:miter;stroke-miterlimit:4;stroke-dasharray:none;stroke-opacity:1" d="M 0.000000,5.000000 L4.000000,0.000000 L9.000000,0.000000 L13.000000,5.000000 L6.000000,4.000000 L6.000000,8.000000 L2.000000,8.000000 Z"/>
<path style="fill:none;fill-rule:evenodd;stroke:#000000;stroke-width:1;stroke-linecap:butt;stroke-linejoin:miter;stroke-miterlimit:4;stroke-dasharray:none;stroke-opacity:1" d="M 0.000000,3.000000 L4.000000,0.000000 L7.000000,0.000000 L8.000000,5.000000 Z"/>
<path style="fill:none;fill-rule:evenodd;stroke:#000000;stroke-width:1;stroke-linecap:butt;stroke-linejoin:miter;stroke-miterlimit:4;stroke-dasharray:none;stroke-opacity:1" d="M 0.000000,4.000000 L2.000000,0.000000 L9.000000,1.000000 L12.000000,5.000000 L2.000000,8.000000 Z"/>
<path style="fill:none;fill-rule:evenodd;stroke:#000000;stroke-width:1;stroke-linecap:butt;stroke-linejoin:miter;stroke-miterlimit:4;stroke-dasharray:none;stroke-opacity:1" d="M 0.000000,8.000000 L3.000000,4.000000 L11.000000,0.000000 L10.000000,7.000000 L2.000000,10.000000 Z"/>
<path style="fill:none;fill-rule:evenodd;stroke:#000000;stroke-width:1;stroke-linecap:butt;stroke-linejoin:miter;stroke-miterlimit:4;stroke-dasharray:none;stroke-opacity:1" d="M 0.000000,4.000000 L2.000000,1.000000 L4.000000,0.000000 L4.000000,6.000000 L0.000000,6.000000 Z"/>
<path style="fill:none;fill-rule:evenodd;stroke:#000000;stroke-width:1;stroke-linecap:butt;stroke-linejoin:miter;stroke-miterlimit:4;stroke-dasharray:none;stroke-opacity:1" d="M 0.000000,7.000000 L2.000000,0.000000 L3.000000,8.000000 Z"/>
<path style="fill:none;fill-rule:evenodd;stroke:#000000;stroke-width:1;stroke-linecap:butt;stroke-linejoin:miter;stroke-miterlimit:4;stroke-dasharray:none;stroke-opacity:1" d="M 0.000000,0.000000 L4.000000,4.000000 L5.000000,7.000000 L2.000000,5.000000 Z"/>
<path style="fill:none;fill-rule:evenodd;stroke:#000000;stroke-width:1;stroke-linecap:butt;stroke-linejoin:miter;stroke-miterlimit:4;stroke-dasharray:none;stroke-opacity:1" d="M 0.000000,0.000000 L5.000000,0.000000 L4.000000,5.000000 L2.000000,7.000000 Z"/>
<path style="fill:none;fill-rule:evenodd;stroke:#000000;stroke-width:1;stroke-linecap:butt;stroke-linejoin:miter;stroke-miterlimit:4;stroke-dasharray:none;stroke-opacity:1" d="M 0.000000,2.000000 L5.000000,5.000000 L9.000000,0.000000 L9.000000,3.000000 L5.000000,8.000000 Z"/>
<path style="fill:none;fill-rule:evenodd;stroke:#000000;stroke-width:1;stroke-linecap:butt;stroke-linejoin:miter;stroke-miterlimit:4;stroke-dasharray:none;stroke-opacity:1" d="M 0.000000,2.000000 L3.000000,0.000000 L7.000000,0.000000 L9.000000,3.000000 L7.000000,6.000000 L5.000000,2.000000 L3.000000,2.000000 L3.000000,3.000000 Z"/>
<path style="fill:none;fill-rule:evenodd;stroke:#000000;stroke-width:1;stroke-linecap:butt;stroke-linejoin:miter;stroke-miterlimit:4;stroke-dasharray:none;stroke-opacity:1" d="M 0.000000,6.000000 L2.000000,3.000000 L2.000000,0.000000 L4.000000,1.000000 L6.000000,0.000000 L9.000000,5.000000 L4.000000,8.000000 Z"/>
</g>
</svg>